<svg id="Layer_1" enable-background="new 0 0 480 480" height="39px" viewBox="0 0 480 480" width="50px" xmlns="http://www.w3.org/2000/svg"><path d="m283.302 132c16.586 0 30.421 12.678 31.88 29.19l24.35 276c1.65 18.71-13.09 34.81-31.88 34.81h-264.1c-18.79 0-33.53-16.1-31.88-34.81l24.35-276c1.46-16.52 15.3-29.19 31.88-29.19z" fill="#ffaa64"/><path d="m291.942 182.049c-115.465 41.593-190.874 141.868-205.483 257.191-2.371 18.723-18.293 32.76-37.166 32.76h-5.741c-18.79 0-33.53-16.1-31.88-34.81l24.35-276c1.46-16.52 15.3-29.19 31.88-29.19 1.453 0 215.691-.015 216.708.026 27.96 1.128 33.658 40.54 7.332 50.023z" fill="#ffbd7b"/><path d="m448.442 460.84c-5.12 0-10.24-1.96-14.15-5.86-79.252-79.252-75.638-75.621-75.7-75.73-63.969 41.834-149.99-3.965-149.99-81.25 0-53.57 43.43-97 97-97 77.399 0 123.007 86.145 81.26 149.98l75.72 75.71c12.638 12.638 3.512 34.15-14.14 34.15z" fill="#d6f4fc"/><path d="m462.582 426.69c7.81 7.81 7.81 20.48 0 28.29-7.794 7.794-20.438 7.832-28.29 0-79.252-79.252-75.638-75.621-75.7-75.73 11.27-7.35 20.91-17 28.27-28.27z" fill="#fe4f60"/><path d="m316.491 201.604c18.489 2.066 20.461 27.911 2.585 33.065-40.454 11.663-70.783 48.611-70.472 94.01.128 18.665-25.388 23.847-32.571 6.619-28.271-67.805 26.918-141.91 100.458-133.694z" fill="#e8f8fc"/><path d="m253.931 283.705c-4.035-1.801-5.845-6.532-4.044-10.566 5.036-11.283 13.273-20.67 23.819-27.146 3.766-2.313 8.691-1.134 11.004 2.631 2.312 3.765 1.134 8.691-2.631 11.004-7.786 4.781-13.865 11.708-17.582 20.033-1.801 4.034-6.532 5.845-10.566 4.044z" fill="#fff"/><path d="m405.412 369.53c-7.36 11.27-17 20.92-28.27 28.27-.051 0-18.483-18.432-18.55-18.55 11.27-7.35 20.91-17 28.27-28.27z" fill="#e84857"/><path d="m347.499 436.484c2.062 23.37-16.391 43.516-39.845 43.516h-264.104c-23.46 0-41.906-20.152-39.845-43.516l24.353-276c1.835-20.799 18.964-36.484 39.845-36.484h24.699v-41c0-45.767 37.233-83 83-83s83 37.233 83 83v41.001h24.7c20.88 0 38.01 15.685 39.845 36.484l.575 6.524c.388 4.401-2.865 8.284-7.267 8.672-4.404.387-8.284-2.867-8.672-7.267l-.575-6.523c-1.101-12.479-11.379-21.89-23.907-21.89h-24.7v35.999c0 4.418-3.582 8-8 8s-8-3.582-8-8v-35.999l-105-.001c-4.418 0-8-3.582-8-8s3.582-8 8-8l105 .001v-41.001c0-36.944-30.056-67-67-67s-67 30.056-67 67v93c0 4.418-3.582 8-8 8s-8-3.582-8-8v-36h-24.698c-12.526 0-22.806 9.409-23.907 21.891l-24.353 276c-1.242 14.062 9.807 26.109 23.907 26.109h264.104c14.117 0 25.147-12.064 23.907-26.109l-1.247-14.13c-.388-4.401 2.865-8.284 7.266-8.672 4.402-.389 8.284 2.865 8.672 7.266zm-217.897-25.484h-58c-4.418 0-8 3.582-8 8s3.582 8 8 8h58c4.418 0 8-3.582 8-8s-3.582-8-8-8zm0-40h-58c-4.418 0-8 3.582-8 8s3.582 8 8 8h58c4.418 0 8-3.582 8-8s-3.582-8-8-8zm144.101-125.003c-10.543 6.479-18.779 15.863-23.817 27.137-1.803 4.034.006 8.765 4.04 10.568 4.033 1.803 8.765-.005 10.568-4.04 3.719-8.321 9.8-15.249 17.587-20.034 3.765-2.313 4.94-7.24 2.627-11.004-2.314-3.765-7.24-4.941-11.005-2.627zm174.734 222.825c-7.17 0-14.34-2.729-19.799-8.188l-71.296-71.296c-69.451 39.499-156.74-10.813-156.74-91.338 0-57.897 47.103-105 105-105s105 47.103 105 105c0 33.263-15.551 62.959-39.76 82.211l69.11 69.11c4.679 4.679 12.292 4.679 16.971 0s4.679-12.292 0-16.971l-48.335-48.335c-3.125-3.124-3.125-8.189 0-11.313 3.124-3.124 8.189-3.124 11.313 0l48.335 48.335c17.605 17.604 5.028 47.785-19.799 47.785zm-142.835-81.822c49.075 0 89-39.925 89-89s-39.925-89-89-89-89 39.925-89 89 39.925 89 89 89z"/></svg>